Coordinates
version=1
nRows=21
nColumns=12
inDegrees=yes

Units are S.I. units (second, meters, Newtons, ...)
Angles are in degrees

endheader
time	SC_y	SC_z	SC_x	AC_y	AC_z	AC_x	GH_y	GH_z	GH_yy	EL_x	PS_y
       0.0              -56.01          29.27          34.87          54.16         -8.672         -3.111         -132.8         -12.76         -83.19          38.11          100.8
  0.008107              -56.01          29.27          34.87          54.16         -8.673         -3.109         -132.8         -12.75         -83.16           38.1          100.8
   0.01621              -56.01          29.26          34.87          54.16         -8.675         -3.107         -132.8         -12.74         -83.13           38.1          100.8
   0.02432              -56.01          29.26          34.88          54.16         -8.676         -3.104         -132.8         -12.73         -83.09           38.1          100.8
   0.03243              -56.01          29.26          34.88          54.16         -8.678         -3.102         -132.8         -12.71         -83.05          38.09          100.8
   0.04053               -56.0          29.25          34.89          54.16          -8.68         -3.099         -132.8          -12.7         -83.01          38.09          100.8
   0.04864               -56.0          29.25          34.89          54.16         -8.682         -3.097         -132.7         -12.68         -82.97          38.08          100.8
   0.05675               -56.0          29.25           34.9          54.16         -8.684         -3.094         -132.7         -12.67         -82.92          38.08          100.8
   0.06485               -56.0          29.24           34.9          54.16         -8.686         -3.091         -132.7         -12.65         -82.87          38.07          100.8
   0.07296               -56.0          29.24          34.91          54.16         -8.689         -3.087         -132.7         -12.63         -82.82          38.06          100.8
   0.08107               -56.0          29.24          34.92          54.16         -8.691         -3.084         -132.6         -12.61         -82.76          38.06          100.8
   0.08917               -56.0          29.23          34.92          54.16         -8.694          -3.08         -132.6         -12.59          -82.7          38.05          100.8
   0.09728               -56.0          29.22          34.93          54.16         -8.697         -3.076         -132.6         -12.57         -82.63          38.04          100.8
    0.1054               -56.0          29.22          34.94          54.16           -8.7         -3.071         -132.6         -12.54         -82.56          38.03          100.8
    0.1135              -55.99          29.21          34.95          54.16         -8.704         -3.066         -132.5         -12.51         -82.48          38.02          100.8
    0.1216              -55.99          29.21          34.96          54.16         -8.708         -3.061         -132.5         -12.48          -82.4          38.01          100.8
    0.1297              -55.99           29.2          34.97          54.16         -8.712         -3.055         -132.4         -12.45         -82.31           38.0          100.8
    0.1378              -55.99          29.19          34.98          54.16         -8.716         -3.049         -132.4         -12.42         -82.21          37.99          100.8
    0.1459              -55.99          29.18          34.99          54.17         -8.721         -3.042         -132.3         -12.38          -82.1          37.98          100.8
     0.154              -55.98          29.17          35.01          54.17         -8.727         -3.034         -132.3         -12.34         -81.98          37.96          100.8
    0.1621              -55.98          29.16          35.02          54.17         -8.733         -3.026         -132.2         -12.29         -81.85          37.95          100.8
